<svg width="71" height="71" viewBox="0 0 71 71" fill="none" xmlns="http://www.w3.org/2000/svg">
<ellipse cx="35.4403" cy="35.5" rx="35.4403" ry="35.5" fill="#C4C4C4"/>
<path d="M35 27.375C36.45 27.375 37.625 28.55 37.625 30C37.625 31.45 36.45 32.625 35 32.625C33.55 32.625 32.375 31.45 32.375 30C32.375 28.55 33.55 27.375 35 27.375ZM35 38.625C38.7125 38.625 42.625 40.45 42.625 41.25V42.625H27.375V41.25C27.375 40.45 31.2875 38.625 35 38.625ZM35 25C32.2375 25 30 27.2375 30 30C30 32.7625 32.2375 35 35 35C37.7625 35 40 32.7625 40 30C40 27.2375 37.7625 25 35 25ZM35 36.25C31.6625 36.25 25 37.925 25 41.25V45H45V41.25C45 37.925 38.3375 36.25 35 36.25Z" fill="black"/>
</svg>
