<svg width="101" height="41" viewBox="0 0 101 41" fill="none" xmlns="http://www.w3.org/2000/svg">
<g filter="url(#filter0_d)">
<path d="M21.28 3.60392H14.32V26.1506H11.425V3.60392H4.45001V0.710132H21.28V3.60392Z" fill="white"/>
<path d="M23.0641 11.7704C23.5441 10.5395 24.1341 9.58087 24.8341 8.89441C25.5341 8.19611 26.3891 7.84696 27.3991 7.84696C27.7191 7.84696 28.0241 7.88839 28.3141 7.97123C28.6141 8.05408 28.8791 8.18427 29.1091 8.3618L28.9141 10.723C28.8541 11.0189 28.7041 11.1668 28.4641 11.1668C28.3241 11.1668 28.1191 11.1313 27.8491 11.0603C27.5791 10.9893 27.2741 10.9538 26.9341 10.9538C26.4541 10.9538 26.0241 11.0366 25.6441 11.2023C25.2741 11.368 24.9391 11.6166 24.6391 11.948C24.3491 12.2675 24.0841 12.6699 23.8441 13.1552C23.6141 13.6286 23.4041 14.1731 23.2141 14.7885V26.1506H20.5291V8.16652H22.0591C22.3491 8.16652 22.5491 8.23162 22.6591 8.3618C22.7691 8.492 22.8441 8.71687 22.8841 9.03643L23.0641 11.7704Z" fill="white"/>
<path d="M39.4574 18.0551C38.2274 18.1025 37.1774 18.2208 36.3074 18.4102C35.4474 18.5877 34.7424 18.8244 34.1924 19.1203C33.6524 19.4162 33.2574 19.7653 33.0074 20.1678C32.7674 20.5702 32.6474 21.0199 32.6474 21.517C32.6474 21.9904 32.7124 22.3988 32.8424 22.742C32.9724 23.0852 33.1474 23.3693 33.3674 23.5941C33.5974 23.8072 33.8624 23.967 34.1624 24.0735C34.4724 24.1682 34.8024 24.2155 35.1524 24.2155C35.6224 24.2155 36.0524 24.1622 36.4424 24.0557C36.8324 23.9374 37.1974 23.7717 37.5374 23.5586C37.8874 23.3456 38.2174 23.0911 38.5274 22.7952C38.8474 22.4994 39.1574 22.162 39.4574 21.7833V18.0551ZM30.8324 10.7052C31.6724 9.74656 32.5774 9.03051 33.5474 8.55709C34.5174 8.08367 35.5924 7.84696 36.7724 7.84696C37.6224 7.84696 38.3774 8.01266 39.0374 8.34405C39.6974 8.67545 40.2524 9.13703 40.7024 9.72881C41.1524 10.3206 41.4924 11.0366 41.7224 11.877C41.9524 12.7173 42.0674 13.6405 42.0674 14.6465V26.1506H40.8824C40.6224 26.1506 40.4224 26.1033 40.2824 26.0086C40.1424 25.9021 40.0324 25.7009 39.9524 25.405L39.6524 23.7007C39.2524 24.1386 38.8624 24.5292 38.4824 24.8724C38.1024 25.2038 37.7024 25.4878 37.2824 25.7245C36.8624 25.9494 36.4124 26.121 35.9324 26.2394C35.4624 26.3696 34.9374 26.4347 34.3574 26.4347C33.7674 26.4347 33.2124 26.34 32.6924 26.1506C32.1724 25.9494 31.7174 25.6535 31.3274 25.263C30.9474 24.8724 30.6424 24.3812 30.4124 23.7894C30.1924 23.1858 30.0824 22.4757 30.0824 21.659C30.0824 20.9489 30.2474 20.2684 30.5774 19.6174C30.9074 18.9546 31.4424 18.3688 32.1824 17.8598C32.9224 17.3509 33.8874 16.9367 35.0774 16.6171C36.2674 16.2857 37.7274 16.0963 39.4574 16.049V14.6465C39.4574 13.2499 39.2024 12.1965 38.6924 11.4864C38.1824 10.7644 37.4374 10.4034 36.4574 10.4034C35.7974 10.4034 35.2424 10.504 34.7924 10.7052C34.3524 10.8946 33.9674 11.1136 33.6374 11.3621C33.3174 11.5988 33.0374 11.8178 32.7974 12.019C32.5674 12.2084 32.3374 12.303 32.1074 12.303C31.9274 12.303 31.7724 12.2498 31.6424 12.1433C31.5124 12.0249 31.4024 11.8829 31.3124 11.7172L30.8324 10.7052Z" fill="white"/>
<path d="M58.8323 8.16652L52.6373 26.1506H50.2373L44.0423 8.16652H46.2173C46.4373 8.16652 46.6173 8.23162 46.7573 8.3618C46.8973 8.492 46.9923 8.64586 47.0423 8.82339L50.8973 20.3985C51.0173 20.8365 51.1223 21.2625 51.2123 21.6768C51.3023 22.091 51.3873 22.5053 51.4673 22.9195C51.5473 22.5053 51.6323 22.091 51.7223 21.6768C51.8123 21.2625 51.9223 20.8365 52.0523 20.3985L55.9523 8.82339C56.0123 8.63402 56.1123 8.48016 56.2523 8.3618C56.3923 8.23162 56.5573 8.16652 56.7473 8.16652H58.8323Z" fill="white"/>
<path d="M71.0409 15.1968C71.0409 14.463 70.9509 13.7943 70.7709 13.1907C70.6009 12.5753 70.3459 12.0486 70.0059 11.6107C69.6759 11.1609 69.2709 10.8177 68.7909 10.581C68.3109 10.3324 67.7659 10.2081 67.1559 10.2081C65.8759 10.2081 64.8609 10.652 64.1109 11.5396C63.3709 12.4155 62.9109 13.6345 62.7309 15.1968H71.0409ZM73.2009 23.6297C72.8709 24.1031 72.4759 24.5173 72.0159 24.8724C71.5559 25.2156 71.0609 25.4997 70.5309 25.7245C70.0109 25.9494 69.4709 26.1151 68.9109 26.2216C68.3509 26.34 67.7959 26.3992 67.2459 26.3992C66.1959 26.3992 65.2259 26.192 64.3359 25.7778C63.4559 25.3517 62.6909 24.7363 62.0409 23.9315C61.4009 23.1148 60.9009 22.1088 60.5409 20.9134C60.1809 19.718 60.0009 18.3451 60.0009 16.7946C60.0009 15.5401 60.1609 14.3683 60.4809 13.2795C60.8109 12.1906 61.2809 11.2497 61.8909 10.4567C62.5009 9.65188 63.2459 9.0246 64.1259 8.57485C65.0059 8.11326 65.9959 7.88247 67.0959 7.88247C68.0059 7.88247 68.8459 8.06592 69.6159 8.43282C70.3959 8.78789 71.0659 9.30865 71.6259 9.99511C72.1959 10.6697 72.6409 11.5101 72.9609 12.5161C73.2809 13.5103 73.4409 14.6465 73.4409 15.9247C73.4409 16.4218 73.3959 16.7532 73.3059 16.9189C73.2159 17.0846 73.0459 17.1674 72.7959 17.1674H62.6409C62.6709 18.3037 62.8009 19.2919 63.0309 20.1322C63.2709 20.9726 63.6009 21.6768 64.0209 22.2449C64.4409 22.8012 64.9409 23.2213 65.5209 23.5054C66.1009 23.7776 66.7509 23.9137 67.4709 23.9137C68.1409 23.9137 68.7159 23.8249 69.1959 23.6474C69.6859 23.458 70.1059 23.2568 70.4559 23.0438C70.8059 22.8307 71.0959 22.6355 71.3259 22.4579C71.5659 22.2686 71.7709 22.1739 71.9409 22.1739C72.1609 22.1739 72.3309 22.2745 72.4509 22.4757L73.2009 23.6297Z" fill="white"/>
<path d="M79.4805 0V26.1506H76.8105V0H79.4805Z" fill="white"/>
<path d="M96.9203 8.16652L88.4453 31.4589C88.3553 31.6956 88.2403 31.8849 88.1003 32.027C87.9703 32.169 87.7653 32.24 87.4853 32.24H85.5053L88.2803 25.1032L82.0103 8.16652H84.3203C84.5503 8.16652 84.7303 8.23753 84.8603 8.37956C85.0003 8.50975 85.0953 8.65769 85.1453 8.82339L89.2103 20.15C89.3703 20.6471 89.5053 21.1679 89.6153 21.7123C89.7553 21.156 89.9053 20.6293 90.0653 20.1322L94.0103 8.82339C94.0703 8.63402 94.1703 8.48016 94.3103 8.3618C94.4603 8.23162 94.6253 8.16652 94.8053 8.16652H96.9203Z" fill="white"/>
</g>
<defs>
<filter id="filter0_d" x="0.450012" y="0" width="100.47" height="40.24" filterUnits="userSpaceOnUse" color-interpolation-filters="sRGB">
<feFlood flood-opacity="0" result="BackgroundImageFix"/>
<feColorMatrix in="SourceAlpha" type="matrix" values="0 0 0 0 0 0 0 0 0 0 0 0 0 0 0 0 0 0 127 0"/>
<feOffset dy="4"/>
<feGaussianBlur stdDeviation="2"/>
<feColorMatrix type="matrix" values="0 0 0 0 0 0 0 0 0 0 0 0 0 0 0 0 0 0 0.25 0"/>
<feBlend mode="normal" in2="BackgroundImageFix" result="effect1_dropShadow"/>
<feBlend mode="normal" in="SourceGraphic" in2="effect1_dropShadow" result="shape"/>
</filter>
</defs>
</svg>
